<svg id="Layer_1" data-name="Layer 1" xmlns="http://www.w3.org/2000/svg" viewBox="0 0 300 300"><defs><style>.cls-1{fill:#00a1c8;}.cls-2{fill:#fff;}</style></defs><title>gno_token</title><path class="cls-1" d="M243.05,150A93.05,93.05,0,1,1,150,57,93.05,93.05,0,0,1,243.05,150"/><path class="cls-2" d="M201.62,118.17,197,122.76a22.78,22.78,0,0,1,2.3,20.26,23,23,0,0,1-29.45,14,22.16,22.16,0,0,1-4.78-2.3L150.19,169.6,137,156.4a23.67,23.67,0,0,1-35.56-27.53,22.06,22.06,0,0,1,2.67-5.16l-5.54-5.54-1.15,1.72a60.64,60.64,0,0,0-9,31.93,61.76,61.76,0,0,0,61.37,61.75H150a61.6,61.6,0,0,0,61.56-61.37,60.64,60.64,0,0,0-9-31.93Z"/><path class="cls-2" d="M111.19,130.59a13.23,13.23,0,0,0-2.68,7.65,12.41,12.41,0,0,0,12.43,12.43,12,12,0,0,0,7.65-2.68Z"/><path class="cls-2" d="M172.75,147a12.55,12.55,0,0,0,19.5-10.33,12.8,12.8,0,0,0-2.1-7.07Z"/><path class="cls-2" d="M150.38,160.23,99.53,109.37l1.91-2.1a65.82,65.82,0,0,1,48.18-20.84h.19a66.32,66.32,0,0,1,48.94,21.8l1.92,2.1Zm-42.44-51,42.44,42.64L192.25,110a60.35,60.35,0,0,0-42.63-17.78h-.19A60.41,60.41,0,0,0,107.94,109.18Z"/></svg>